<svg xmlns="http://www.w3.org/2000/svg" width="228" height="233" viewBox="0 0 228 233" fill="none" class="jss2 jss5" data-testid="navbar-logo-light"><path fill-rule="evenodd" clip-rule="evenodd" d="M139.265 13.7886H88.2471C67.0573 13.7886 52.552 13.8179 41.6689 15.2811C31.1824 16.691 26.1463 19.2007 22.6735 22.6735C19.2007 26.1463 16.691 31.1824 15.2811 41.6689C13.8179 52.552 13.7886 67.0573 13.7886 88.2471V144.106C13.7886 165.296 13.8179 179.801 15.2811 190.684C16.691 201.17 19.2007 206.207 22.6735 209.679C26.1463 213.152 31.1824 215.662 41.6689 217.072C52.552 218.535 67.0573 218.564 88.2471 218.564H139.265C160.455 218.564 174.96 218.535 185.843 217.072C196.33 215.662 201.366 213.152 204.839 209.679C208.311 206.207 210.821 201.17 212.231 190.684C213.694 179.801 213.724 165.296 213.724 144.106V88.2472C213.724 67.0573 213.694 52.552 212.231 41.6689C210.821 31.1824 208.311 26.1463 204.839 22.6735C201.366 19.2007 196.33 16.691 185.843 15.2811C174.96 13.8179 160.455 13.7886 139.265 13.7886ZM12.9235 12.9235C0 25.847 0 46.647 0 88.2471V144.106C0 185.706 0 206.506 12.9235 219.429C25.847 232.353 46.647 232.353 88.2471 232.353H139.265C180.865 232.353 201.665 232.353 214.589 219.429C227.512 206.506 227.512 185.706 227.512 144.106V88.2472C227.512 46.647 227.512 25.847 214.589 12.9235C201.665 0 180.865 0 139.265 0H88.2471C46.647 0 25.847 0 12.9235 12.9235Z" fill="white"></path><path d="M140.053 60.876V142.789L87.3825 60.876H64.1211V177.183H85.2225V94.2727L138.89 177.183H161.154V60.876H140.053Z" fill="white"></path></svg>